<svg width="20" height="18" viewBox="0 0 20 18" fill="none" xmlns="http://www.w3.org/2000/svg">
<path d="M6.66667 13.1667L10 16.5M10 16.5L13.3333 13.1667M10 16.5V9.00001M17.4 14.075C18.1245 13.5655 18.6678 12.8385 18.9511 11.9993C19.2343 11.1601 19.2428 10.2525 18.9753 9.40819C18.7078 8.56387 18.1782 7.82675 17.4634 7.30381C16.7486 6.78087 15.8857 6.49931 15 6.50001H13.95C13.6994 5.52323 13.2304 4.61605 12.5784 3.84674C11.9265 3.07743 11.1085 2.46606 10.186 2.05863C9.26356 1.65121 8.26071 1.45836 7.25294 1.4946C6.24518 1.53084 5.25877 1.79523 4.36797 2.26786C3.47717 2.74049 2.70519 3.40905 2.11016 4.2232C1.51513 5.03735 1.11255 5.97588 0.932723 6.96813C0.752897 7.96038 0.800514 8.9805 1.07199 9.95169C1.34346 10.9229 1.83172 11.8198 2.50001 12.575" stroke="#344054" stroke-width="1.67" stroke-linecap="round" stroke-linejoin="round"/>
</svg>
